<svg width="24" height="24" viewBox="0 0 24 24" fill="none" xmlns="http://www.w3.org/2000/svg">
<path d="M7.8916 9.65723C8.89033 9.65725 9.83256 9.93526 10.6738 10.4209L9.67383 12.1533C9.1102 11.828 8.51001 11.6573 7.8916 11.6572C6.65485 11.6574 5.44454 12.3497 4.50586 13.6494C3.72133 14.7357 3.16756 16.2042 3.00684 17.874H7.8916V19.874H1.95703C1.40494 19.8738 0.957031 19.4262 0.957031 18.874C0.957098 16.4183 1.67483 14.1538 2.88477 12.4785C4.09373 10.8046 5.85121 9.65739 7.8916 9.65723ZM16.1104 9.65723C18.1507 9.65745 19.9083 10.8046 21.1172 12.4785C22.3271 14.1538 23.0449 16.4184 23.0449 18.874C23.0449 19.4261 22.5969 19.8736 22.0449 19.874H10.1758C9.6235 19.874 9.17578 19.4263 9.17578 18.874C9.17585 16.4183 9.89356 14.1538 11.1035 12.4785C12.3126 10.8047 14.0699 9.65723 16.1104 9.65723ZM16.1104 11.6572C14.8736 11.6572 13.6634 12.3498 12.7246 13.6494C11.9401 14.7357 11.3863 16.2042 11.2256 17.874H20.9951C20.8344 16.2042 20.2806 14.7357 19.4961 13.6494C18.5575 12.3498 17.347 11.6574 16.1104 11.6572ZM7.88965 2.35352C9.70243 2.35352 11.1717 3.823 11.1719 5.63574C11.1717 7.44841 9.70237 8.91797 7.88965 8.91797C6.0772 8.91765 4.60765 7.44821 4.60742 5.63574C4.60755 3.8232 6.07715 2.35384 7.88965 2.35352ZM16.1074 2.35352C17.9202 2.35352 19.3895 3.823 19.3896 5.63574C19.3894 7.44841 17.9201 8.91797 16.1074 8.91797C14.295 8.91758 12.8254 7.44817 12.8252 5.63574C12.8253 3.82324 14.295 2.3539 16.1074 2.35352ZM7.88965 4.35352C7.18172 4.35384 6.60755 4.92776 6.60742 5.63574C6.60765 6.34364 7.18177 6.91765 7.88965 6.91797C8.5978 6.91797 9.17165 6.34384 9.17188 5.63574C9.17174 4.92757 8.59786 4.35352 7.88965 4.35352ZM16.1074 4.35352C15.3995 4.3539 14.8253 4.9278 14.8252 5.63574C14.8254 6.3436 15.3996 6.91758 16.1074 6.91797C16.8156 6.91797 17.3894 6.34384 17.3896 5.63574C17.3895 4.92757 16.8156 4.35352 16.1074 4.35352Z" fill="black"/>
</svg>
