<svg width="24" height="24" viewBox="0 0 24 24" fill="none" xmlns="http://www.w3.org/2000/svg">
<path d="M21.7611 20.0741L18.3681 16.716C19.6654 15.1358 20.364 13.2593 20.4638 11.0864C20.5636 6.04938 16.472 2 11.3825 2C6.29295 2 2.10158 6.14815 2.00179 11.1852C1.90199 16.2222 5.99357 20.2716 11.0831 20.2716C13.1788 20.2716 15.1747 19.5802 16.7714 18.3951L20.2642 21.8519C20.4638 22.0494 20.863 22.0494 21.0625 21.8519L21.8609 21.0617C22.0605 20.6667 22.0605 20.2716 21.7611 20.0741ZM11.0831 18C7.2909 18 4.19727 14.9383 4.29706 11.1852C4.39686 7.4321 7.49049 4.37037 11.3825 4.37037C15.1747 4.37037 18.2683 7.4321 18.1685 11.1852C18.0687 14.9383 14.9751 18 11.0831 18Z" fill="black"/>
</svg>
