<svg width="24" height="24" viewBox="0 0 24 24" fill="none" xmlns="http://www.w3.org/2000/svg">
<path d="M9.49652 15.1213L16.8109 9.49063C17.1693 9.21563 17.6822 9.32287 17.8525 9.75187C18.7521 12.0124 18.3501 14.7301 16.5608 16.5959C14.7721 18.4618 12.2825 18.8716 10.0067 17.9393L7.52172 19.139C11.0865 21.6807 15.4156 21.0516 18.1211 18.2287C20.2668 15.9909 20.9315 12.9405 20.3104 10.1898L20.3157 10.196C19.4147 6.15488 20.5374 4.53994 22.837 1.23719C22.8911 1.15881 22.9459 1.08044 23 1L19.9738 4.15563V4.146L9.49454 15.124M7.98704 16.4901C5.42812 13.9408 5.86967 9.99594 8.05304 7.721C9.66747 6.03731 12.3129 5.3505 14.6216 6.36044L17.102 5.16625C16.6552 4.82938 16.0823 4.46706 15.4255 4.21269C13.9239 3.57212 12.2739 3.4084 10.6832 3.74212C9.09246 4.07583 7.63199 4.89208 6.48548 6.08819C4.16285 8.51025 3.43286 12.2344 4.68691 15.4114C5.62415 17.786 4.08826 19.4663 2.54116 21.1616C1.99334 21.7625 1.44288 22.3634 1 23L7.98506 16.4921" fill="currentColor"/>
</svg>
