<svg viewBox="0 0 24 24" xmlns="http://www.w3.org/2000/svg">
    <path fill="currentColor" d="M13.3616 1.47308C12.2706 0.609817 10.7294 0.609816 9.63841 1.47308L1.89736 7.59861C0.698925 8.54694 0 9.99128 0 11.5195V23C0 24.6569 1.34315 26 3 26H5.94445C7.6013 26 8.94444 24.6569 8.94444 23V19.4556C8.94444 18.0442 10.0886 16.9 11.5 16.9C12.9114 16.9 14.0556 18.0442 14.0556 19.4556V23C14.0556 24.6569 15.3987 26 17.0556 26H20C21.6569 26 23 24.6569 23 23V11.5195C23 9.99127 22.3011 8.54694 21.1026 7.59861L13.3616 1.47308Z"/>
</svg>
