<svg width="24" height="24" viewBox="0 0 24 24" fill="none" xmlns="http://www.w3.org/2000/svg">
<path d="M12.001 2.45312C17.5499 2.45325 22.0487 6.95201 22.0488 12.501C22.0487 18.0499 17.5499 22.5487 12.001 22.5488C6.45201 22.5487 1.95325 18.0499 1.95312 12.501C1.95325 6.95201 6.45201 2.45325 12.001 2.45312ZM12.001 4.45312C7.55658 4.45325 3.95325 8.05658 3.95312 12.501C3.95325 16.9454 7.55658 20.5487 12.001 20.5488C16.4454 20.5487 20.0487 16.9454 20.0488 12.501C20.0487 8.05658 16.4454 4.45325 12.001 4.45312ZM7.24023 11.0713C8.02906 11.0714 8.66887 11.7112 8.66895 12.5C8.66895 13.2889 8.02911 13.9286 7.24023 13.9287C6.45126 13.9287 5.81152 13.289 5.81152 12.5C5.8116 11.7111 6.4513 11.0713 7.24023 11.0713ZM12.002 11.0713C12.7909 11.0713 13.4306 11.7111 13.4307 12.5C13.4307 13.289 12.7909 13.9287 12.002 13.9287C11.213 13.9287 10.5732 13.289 10.5732 12.5C10.5733 11.7111 11.213 11.0713 12.002 11.0713ZM16.7637 11.0713C17.5526 11.0713 18.1923 11.7111 18.1924 12.5C18.1924 13.289 17.5527 13.9287 16.7637 13.9287C15.9748 13.9286 15.335 13.2889 15.335 12.5C15.335 11.7111 15.9748 11.0714 16.7637 11.0713Z" fill="black"/>
</svg>
