<svg width="24" height="24" viewBox="0 0 24 24" fill="none" xmlns="http://www.w3.org/2000/svg">
<path d="M12 1C13.8794 1 15.4907 1.46419 16.835 2.34082C18.1737 3.21388 19.1916 4.45886 19.9512 5.93555C21.4559 8.86136 22 12.8023 22 17C22 17.5523 21.5523 18 21 18H18.9229C18.4418 21.115 15.7497 23.5 12.5 23.5C9.25025 23.5 6.5582 21.115 6.07715 18H3C2.44771 18 2 17.5523 2 17C2 12.8023 2.54405 8.86136 4.04883 5.93555C4.80836 4.45886 5.82631 3.21388 7.16504 2.34082C8.50932 1.46419 10.1206 1 12 1ZM8.11328 18C8.56815 20.0038 10.3586 21.5 12.5 21.5C14.6415 21.5 16.4318 20.0038 16.8867 18H8.11328ZM12 3C10.4637 3 9.24147 3.37515 8.25781 4.0166C7.26889 4.66155 6.46359 5.61311 5.82715 6.85059C4.64594 9.14727 4.09573 12.3335 4.0127 16H19.9873C19.9043 12.3335 19.3541 9.14727 18.1729 6.85059C17.5364 5.61311 16.7311 4.66155 15.7422 4.0166C14.7585 3.37515 13.5363 3 12 3Z" fill="black"/>
</svg>
