<svg width="22" height="22" viewBox="0 0 22 22" fill="none" xmlns="http://www.w3.org/2000/svg">
<path fill-rule="evenodd" clip-rule="evenodd" d="M13.3226 3.84761L10.9986 1.59961L8.67459 3.84761L5.47359 3.39461L4.91459 6.57861L2.05859 8.09461L3.47859 10.9996L2.05859 13.9036L4.91459 15.4196L5.47359 18.6036L8.67459 18.1516L10.9986 20.3996L13.3226 18.1516L16.5236 18.6036L17.0826 15.4196L19.9386 13.9036L18.5186 10.9996L19.9386 8.09461L17.0826 6.57861L16.5236 3.39461L13.3226 3.84761ZM6.23259 11.4226L9.66059 14.8506L15.3436 8.64461L13.9966 7.39761L9.59659 12.1926L7.52459 10.1206L6.23259 11.4226Z" fill="url(#paint0_linear_2055_3275)"/>
<path fill-rule="evenodd" clip-rule="evenodd" d="M13.0991 4.533L10.9981 2.5L8.89706 4.533L6.00206 4.123L5.49706 7.003L2.91406 8.373L4.19806 11L2.91406 13.627L5.49706 14.997L6.00206 17.877L8.89706 17.467L10.9981 19.5L13.0991 17.467L15.9941 17.877L16.4991 14.997L19.0821 13.627L17.7981 11L19.0821 8.373L16.4991 7.003L15.9941 4.123L13.0991 4.533ZM6.23106 11.423L9.66006 14.851L15.3431 8.645L13.9961 7.398L9.59606 12.193L7.52406 10.121L6.23106 11.423Z" fill="url(#paint1_linear_2055_3275)"/>
<path fill-rule="evenodd" clip-rule="evenodd" d="M6.23347 11.4234L9.66247 14.8514L15.3125 8.68144L15.3505 8.64844L15.3455 10.0464L9.66247 16.2524L6.23347 12.8234L6.23047 11.4184L6.23547 11.4214L6.23347 11.4234Z" fill="#D18800"/>
<defs>
<linearGradient id="paint0_linear_2055_3275" x1="4.40959" y1="2.49461" x2="18.0816" y2="21.5076" gradientUnits="userSpaceOnUse">
<stop stop-color="#F4E72A"/>
<stop offset="0.539" stop-color="#CD8105"/>
<stop offset="0.68" stop-color="#CB7B00"/>
<stop offset="1" stop-color="#F4E72A"/>
</linearGradient>
<linearGradient id="paint1_linear_2055_3275" x1="5.35306" y1="3.395" x2="16.3591" y2="19.133" gradientUnits="userSpaceOnUse">
<stop stop-color="#F9E87F"/>
<stop offset="0.406" stop-color="#E2B719"/>
<stop offset="0.989" stop-color="#E2B719"/>
</linearGradient>
</defs>
</svg>
